<svg id="Group_1569" data-name="Group 1569" xmlns="http://www.w3.org/2000/svg" width="179.663" height="27.098" viewBox="0 0 179.663 27.098">
  <path id="Path_1" data-name="Path 1" d="M81.211,39.3V20.282H74.28V13.47H95.925v6.812H89.034V39.3Z" transform="translate(-74.28 -12.854)" fill="#fff"/>
  <path id="Path_2" data-name="Path 2" d="M119.417,39.294l-3.564-8.132h-2.829v8.132H105.2V13.46h13.782c6.038,0,9.294,4.03,9.294,8.867a8.325,8.325,0,0,1-4.647,7.824l4.686,9.135h-8.9Zm.925-17c0-1.391-1.241-2.015-2.553-2.015h-4.765v4.062h4.765C119.109,24.342,120.342,23.726,120.342,22.3Z" transform="translate(-76.573 -12.851)" fill="#fff"/>
  <path id="Path_3" data-name="Path 3" d="M138.43,39.294V13.46h7.824V39.286H138.43Z" transform="translate(-80.031 -12.851)" fill="#fff"/>
  <path id="Path_4" data-name="Path 4" d="M153.62,39.294V13.46H167.4c6.038,0,9.294,4.03,9.294,8.867,0,4.8-3.256,8.827-9.294,8.827h-5.967v8.132H153.62Zm15.142-16.959c0-1.391-1.043-2.055-2.363-2.055h-4.955v4.062H166.4C167.718,24.342,168.762,23.686,168.762,22.335Z" transform="translate(-80.335 -12.851)" fill="#fff"/>
  <path id="Path_5" data-name="Path 5" d="M186.06,39.294V13.46h7.824V32.474h9.8v6.812H186.06Z" transform="translate(-83.002 -12.851)" fill="#fff"/>
  <path id="Path_6" data-name="Path 6" d="M212.33,39.294V13.46h19.591v6.812H220.146v2.553h11.5v6.812h-11.5v2.829h11.775v6.812H212.33Z" transform="translate(-85.226 -12.851)" fill="#fff"/>
  <path id="Path_7" data-name="Path 7" d="M240.92,26.235c0-8.092,5.943-13.545,13.814-13.545,6.875,0,10.842,4.007,12.407,7.618l-6.733,3.185a6.1,6.1,0,0,0-5.366-3.256,5.89,5.89,0,1,0-.032,11.775,5.288,5.288,0,0,0,5.018-3.193l7.113,3.311a12.216,12.216,0,0,1-11.8,7.658C246.871,39.788,240.92,34.09,240.92,26.235Z" transform="translate(-87.479 -12.69)" fill="#fff"/>
</svg>
